<mxfile host="app.diagrams.net" modified="2023-05-28T14:09:07.822Z" agent="Mozilla/5.0 (Windows NT 10.0; Win64; x64) AppleWebKit/537.36 (KHTML, like Gecko) Chrome/113.0.0.0 Safari/537.36" etag="15d4NXR9Z6ae2yIPprcK" version="21.3.5" type="github">
  <diagram name="第 1 页" id="v-2JSMdyngTYuYpMT9vz">
    <mxGraphModel dx="1434" dy="700" grid="1" gridSize="10" guides="1" tooltips="1" connect="1" arrows="1" fold="1" page="1" pageScale="1" pageWidth="3300" pageHeight="4681" math="0" shadow="0">
      <root>
        <mxCell id="0" />
        <mxCell id="1" parent="0" />
        <mxCell id="zS8hD_QvRWILzeprvR_h-3" value="" style="group" vertex="1" connectable="0" parent="1">
          <mxGeometry x="180" y="130" width="120" height="60" as="geometry" />
        </mxCell>
        <mxCell id="zS8hD_QvRWILzeprvR_h-1" value="" style="rounded=0;whiteSpace=wrap;html=1;" vertex="1" parent="zS8hD_QvRWILzeprvR_h-3">
          <mxGeometry width="120" height="60" as="geometry" />
        </mxCell>
        <mxCell id="zS8hD_QvRWILzeprvR_h-2" value="redis" style="text;html=1;strokeColor=none;fillColor=none;align=center;verticalAlign=middle;whiteSpace=wrap;rounded=0;" vertex="1" parent="zS8hD_QvRWILzeprvR_h-3">
          <mxGeometry x="30" y="15" width="60" height="30" as="geometry" />
        </mxCell>
        <mxCell id="zS8hD_QvRWILzeprvR_h-5" value="" style="group" vertex="1" connectable="0" parent="1">
          <mxGeometry x="180" y="320" width="120" height="60" as="geometry" />
        </mxCell>
        <mxCell id="zS8hD_QvRWILzeprvR_h-6" value="" style="rounded=0;whiteSpace=wrap;html=1;" vertex="1" parent="zS8hD_QvRWILzeprvR_h-5">
          <mxGeometry width="120" height="60" as="geometry" />
        </mxCell>
        <mxCell id="zS8hD_QvRWILzeprvR_h-7" value="持久化" style="text;html=1;strokeColor=none;fillColor=none;align=center;verticalAlign=middle;whiteSpace=wrap;rounded=0;" vertex="1" parent="zS8hD_QvRWILzeprvR_h-5">
          <mxGeometry x="30" y="15" width="60" height="30" as="geometry" />
        </mxCell>
        <mxCell id="zS8hD_QvRWILzeprvR_h-8" value="" style="group" vertex="1" connectable="0" parent="1">
          <mxGeometry x="410" y="410" width="170" height="60" as="geometry" />
        </mxCell>
        <mxCell id="zS8hD_QvRWILzeprvR_h-9" value="" style="rounded=0;whiteSpace=wrap;html=1;" vertex="1" parent="zS8hD_QvRWILzeprvR_h-8">
          <mxGeometry width="170" height="60" as="geometry" />
        </mxCell>
        <mxCell id="zS8hD_QvRWILzeprvR_h-10" value="AOF（追加）" style="text;html=1;strokeColor=none;fillColor=none;align=center;verticalAlign=middle;whiteSpace=wrap;rounded=0;" vertex="1" parent="zS8hD_QvRWILzeprvR_h-8">
          <mxGeometry x="30" y="15" width="110" height="30" as="geometry" />
        </mxCell>
        <mxCell id="zS8hD_QvRWILzeprvR_h-11" value="" style="group" vertex="1" connectable="0" parent="1">
          <mxGeometry x="410" y="250" width="120" height="60" as="geometry" />
        </mxCell>
        <mxCell id="zS8hD_QvRWILzeprvR_h-12" value="" style="rounded=0;whiteSpace=wrap;html=1;" vertex="1" parent="zS8hD_QvRWILzeprvR_h-11">
          <mxGeometry width="120" height="60" as="geometry" />
        </mxCell>
        <mxCell id="zS8hD_QvRWILzeprvR_h-13" value="RDB(快照)" style="text;html=1;strokeColor=none;fillColor=none;align=center;verticalAlign=middle;whiteSpace=wrap;rounded=0;" vertex="1" parent="zS8hD_QvRWILzeprvR_h-11">
          <mxGeometry x="30" y="15" width="60" height="30" as="geometry" />
        </mxCell>
        <mxCell id="zS8hD_QvRWILzeprvR_h-14" style="edgeStyle=orthogonalEdgeStyle;rounded=0;orthogonalLoop=1;jettySize=auto;html=1;exitX=0.5;exitY=0;exitDx=0;exitDy=0;entryX=0;entryY=0.5;entryDx=0;entryDy=0;" edge="1" parent="1" source="zS8hD_QvRWILzeprvR_h-6" target="zS8hD_QvRWILzeprvR_h-12">
          <mxGeometry relative="1" as="geometry" />
        </mxCell>
        <mxCell id="zS8hD_QvRWILzeprvR_h-15" style="edgeStyle=orthogonalEdgeStyle;rounded=0;orthogonalLoop=1;jettySize=auto;html=1;exitX=0.5;exitY=1;exitDx=0;exitDy=0;entryX=0;entryY=0.5;entryDx=0;entryDy=0;" edge="1" parent="1" source="zS8hD_QvRWILzeprvR_h-6" target="zS8hD_QvRWILzeprvR_h-9">
          <mxGeometry relative="1" as="geometry" />
        </mxCell>
      </root>
    </mxGraphModel>
  </diagram>
</mxfile>
